<svg width="19" height="18" viewBox="0 0 19 18" fill="none" xmlns="http://www.w3.org/2000/svg">
<g clip-path="url(#clip0_16813_57087)">
<path d="M1.25 3.56269H3.302C3.46298 4.15499 3.81438 4.67787 4.30199 5.05064C4.78961 5.42342 5.38634 5.62539 6.00012 5.62539C6.61391 5.62539 7.21064 5.42342 7.69826 5.05064C8.18587 4.67787 8.53727 4.15499 8.69825 3.56269H17.75C17.9489 3.56269 18.1397 3.48368 18.2803 3.34302C18.421 3.20237 18.5 3.01161 18.5 2.81269C18.5 2.61378 18.421 2.42302 18.2803 2.28236C18.1397 2.14171 17.9489 2.06269 17.75 2.06269H8.69825C8.53727 1.4704 8.18587 0.947524 7.69826 0.574746C7.21064 0.201968 6.61391 0 6.00012 0C5.38634 0 4.78961 0.201968 4.30199 0.574746C3.81438 0.947524 3.46298 1.4704 3.302 2.06269H1.25C1.05109 2.06269 0.860322 2.14171 0.71967 2.28236C0.579018 2.42302 0.5 2.61378 0.5 2.81269C0.5 3.01161 0.579018 3.20237 0.71967 3.34302C0.860322 3.48368 1.05109 3.56269 1.25 3.56269ZM5.99975 1.50019C6.25934 1.50019 6.5131 1.57717 6.72894 1.72139C6.94478 1.86561 7.113 2.07059 7.21234 2.31042C7.31168 2.55025 7.33767 2.81415 7.28703 3.06875C7.23639 3.32335 7.11138 3.55722 6.92783 3.74077C6.74427 3.92433 6.51041 4.04933 6.25581 4.09998C6.00121 4.15062 5.73731 4.12463 5.49748 4.02529C5.25765 3.92595 5.05267 3.75772 4.90845 3.54188C4.76423 3.32604 4.68725 3.07228 4.68725 2.81269C4.68765 2.46472 4.82606 2.13111 5.07211 1.88506C5.31817 1.639 5.65178 1.50059 5.99975 1.50019Z" fill="#293F71"/>
<path d="M17.75 8.24946H15.698C15.5373 7.65702 15.186 7.13396 14.6985 6.76103C14.2109 6.3881 13.6141 6.18604 13.0002 6.18604C12.3864 6.18604 11.7896 6.3881 11.302 6.76103C10.8145 7.13396 10.4632 7.65702 10.3025 8.24946H1.25C1.05109 8.24946 0.860322 8.32847 0.71967 8.46913C0.579018 8.60978 0.5 8.80054 0.5 8.99946C0.5 9.19837 0.579018 9.38913 0.71967 9.52978C0.860322 9.67044 1.05109 9.74945 1.25 9.74945H10.3025C10.4632 10.3419 10.8145 10.8649 11.302 11.2379C11.7896 11.6108 12.3864 11.8129 13.0002 11.8129C13.6141 11.8129 14.2109 11.6108 14.6985 11.2379C15.186 10.8649 15.5373 10.3419 15.698 9.74945H17.75C17.9489 9.74945 18.1397 9.67044 18.2803 9.52978C18.421 9.38913 18.5 9.19837 18.5 8.99946C18.5 8.80054 18.421 8.60978 18.2803 8.46913C18.1397 8.32847 17.9489 8.24946 17.75 8.24946ZM13.0002 10.312C12.7407 10.312 12.4869 10.235 12.2711 10.0908C12.0552 9.94654 11.887 9.74155 11.7877 9.50173C11.6883 9.2619 11.6623 8.998 11.713 8.7434C11.7636 8.4888 11.8886 8.25494 12.0722 8.07138C12.2557 7.88782 12.4896 7.76282 12.7442 7.71218C12.9988 7.66153 13.2627 7.68753 13.5025 7.78687C13.7424 7.88621 13.9473 8.05443 14.0916 8.27027C14.2358 8.48611 14.3127 8.73987 14.3127 8.99946C14.3124 9.34743 14.1739 9.68104 13.9279 9.92709C13.6818 10.1731 13.3482 10.3116 13.0002 10.312Z" fill="#293F71"/>
<path d="M17.75 14.4377H8.69825C8.53727 13.8454 8.18587 13.3225 7.69826 12.9497C7.21064 12.577 6.61391 12.375 6.00012 12.375C5.38634 12.375 4.78961 12.577 4.30199 12.9497C3.81438 13.3225 3.46298 13.8454 3.302 14.4377H1.25C1.05109 14.4377 0.860322 14.5167 0.71967 14.6574C0.579018 14.798 0.5 14.9888 0.5 15.1877C0.5 15.3866 0.579018 15.5774 0.71967 15.718C0.860322 15.8587 1.05109 15.9377 1.25 15.9377H3.302C3.46298 16.53 3.81438 17.0528 4.30199 17.4256C4.78961 17.7984 5.38634 18.0004 6.00012 18.0004C6.61391 18.0004 7.21064 17.7984 7.69826 17.4256C8.18587 17.0528 8.53727 16.53 8.69825 15.9377H17.75C17.9489 15.9377 18.1397 15.8587 18.2803 15.718C18.421 15.5774 18.5 15.3866 18.5 15.1877C18.5 14.9888 18.421 14.798 18.2803 14.6574C18.1397 14.5167 17.9489 14.4377 17.75 14.4377ZM5.99975 16.5002C5.74016 16.5002 5.4864 16.4232 5.27056 16.279C5.05472 16.1348 4.8865 15.9298 4.78716 15.69C4.68782 15.4501 4.66183 15.1862 4.71247 14.9316C4.76311 14.677 4.88812 14.4432 5.07167 14.2596C5.25523 14.0761 5.48909 13.9511 5.74369 13.9004C5.99829 13.8498 6.26219 13.8758 6.50202 13.9751C6.74185 14.0744 6.94683 14.2427 7.09105 14.4585C7.23527 14.6743 7.31225 14.9281 7.31225 15.1877C7.31166 15.5356 7.17318 15.8691 6.92717 16.1151C6.68116 16.3611 6.34766 16.4996 5.99975 16.5002Z" fill="#293F71"/>
</g>
<defs>
<clipPath id="clip0_16813_57087">
<rect width="18" height="18" fill="white" transform="translate(0.5)"/>
</clipPath>
</defs>
</svg>
