<svg width="18" height="12" viewBox="0 0 18 12" fill="none" xmlns="http://www.w3.org/2000/svg">
<path d="M7.25 11.6342C7.0375 11.6342 6.85942 11.5623 6.71575 11.4185C6.57192 11.2748 6.5 11.0967 6.5 10.884C6.5 10.6715 6.57192 10.4934 6.71575 10.3497C6.85942 10.2062 7.0375 10.1345 7.25 10.1345H16.75C16.9625 10.1345 17.1406 10.2063 17.2843 10.35C17.4281 10.4938 17.5 10.6721 17.5 10.8847C17.5 11.0972 17.4281 11.2753 17.2843 11.419C17.1406 11.5625 16.9625 11.6342 16.75 11.6342H7.25ZM7.25 6.74973C7.0375 6.74973 6.85942 6.67782 6.71575 6.53398C6.57192 6.39015 6.5 6.21198 6.5 5.99948C6.5 5.78682 6.57192 5.60873 6.71575 5.46523C6.85942 5.32157 7.0375 5.24973 7.25 5.24973H16.75C16.9625 5.24973 17.1406 5.32165 17.2843 5.46548C17.4281 5.60932 17.5 5.78748 17.5 5.99998C17.5 6.21265 17.4281 6.39073 17.2843 6.53423C17.1406 6.6779 16.9625 6.74973 16.75 6.74973H7.25ZM1.25 1.86498C1.0375 1.86498 0.859417 1.79315 0.71575 1.64948C0.571917 1.50565 0.5 1.3274 0.5 1.11473C0.5 0.902234 0.571917 0.724151 0.71575 0.580484C0.859417 0.436984 1.0375 0.365234 1.25 0.365234H16.75C16.9625 0.365234 17.1406 0.437151 17.2843 0.580985C17.4281 0.724651 17.5 0.902818 17.5 1.11548C17.5 1.32798 17.4281 1.50607 17.2843 1.64973C17.1406 1.79323 16.9625 1.86498 16.75 1.86498H1.25Z" fill="#0C1322"/>
</svg>
