<svg width="48" height="48" viewBox="0 0 48 48" fill="none" xmlns="http://www.w3.org/2000/svg">
<mask id="mask0_16813_57454" style="mask-type:alpha" maskUnits="userSpaceOnUse" x="0" y="0" width="48" height="48">
<rect width="48" height="48" fill="#D9D9D9"/>
</mask>
<g mask="url(#mask0_16813_57454)">
<path d="M16 40H32V34C32 31.8 31.2167 29.9167 29.65 28.35C28.0833 26.7833 26.2 26 24 26C21.8 26 19.9167 26.7833 18.35 28.35C16.7833 29.9167 16 31.8 16 34V40ZM24 22C26.2 22 28.0833 21.2167 29.65 19.65C31.2167 18.0833 32 16.2 32 14V8H16V14C16 16.2 16.7833 18.0833 18.35 19.65C19.9167 21.2167 21.8 22 24 22ZM8 44V40H12V34C12 31.9667 12.475 30.0583 13.425 28.275C14.375 26.4917 15.7 25.0667 17.4 24C15.7 22.9333 14.375 21.5083 13.425 19.725C12.475 17.9417 12 16.0333 12 14V8H8V4H40V8H36V14C36 16.0333 35.525 17.9417 34.575 19.725C33.625 21.5083 32.3 22.9333 30.6 24C32.3 25.0667 33.625 26.4917 34.575 28.275C35.525 30.0583 36 31.9667 36 34V40H40V44H8Z" fill="#25324B"/>
</g>
</svg>
