<svg width="212" height="71" viewBox="0 0 212 71" fill="none" xmlns="http://www.w3.org/2000/svg">
<path d="M20.76 39.44C18.12 39.44 15.8933 38.4133 14.08 36.36C12.2667 34.3067 11.36 31.8533 11.36 29C11.36 26.1467 12.2667 23.6933 14.08 21.64C15.8933 19.5867 18.12 18.56 20.76 18.56C22.04 18.56 23.1867 18.8267 24.2 19.36C25.2133 19.8933 25.9867 20.52 26.52 21.24V9H32V39H26.52V36.76C25.9867 37.48 25.2133 38.1067 24.2 38.64C23.1867 39.1733 22.04 39.44 20.76 39.44ZM18.24 32.92C19.1733 33.9333 20.4 34.44 21.92 34.44C23.44 34.44 24.6533 33.9333 25.56 32.92C26.4933 31.9067 26.96 30.6 26.96 29C26.96 27.4 26.4933 26.0933 25.56 25.08C24.6533 24.0667 23.44 23.56 21.92 23.56C20.4 23.56 19.1733 24.0667 18.24 25.08C17.3333 26.0933 16.88 27.4 16.88 29C16.88 30.6 17.3333 31.9067 18.24 32.92ZM41.3275 39V19H46.8075V22.2C47.1542 21.2133 47.7808 20.4 48.6875 19.76C49.6208 19.0933 50.6475 18.76 51.7675 18.76C52.4608 18.76 53.0742 18.84 53.6075 19V24.56C52.7275 24.2667 51.9008 24.12 51.1275 24.12C49.8208 24.12 48.7675 24.6 47.9675 25.56C47.1942 26.4933 46.8075 27.7867 46.8075 29.44V39H41.3275ZM61.7631 39.32C60.6431 39.32 59.6965 38.9333 58.9231 38.16C58.1498 37.3867 57.7631 36.44 57.7631 35.32C57.7631 34.2 58.1498 33.2533 58.9231 32.48C59.6965 31.7067 60.6431 31.32 61.7631 31.32C62.8565 31.32 63.7898 31.72 64.5631 32.52C65.3631 33.2933 65.7631 34.2267 65.7631 35.32C65.7631 36.4133 65.3631 37.36 64.5631 38.16C63.7898 38.9333 62.8565 39.32 61.7631 39.32Z" fill="#3E5EA9"/>
<path d="M83.095 39.4C80.295 39.4 77.935 38.3867 76.015 36.36C74.095 34.3333 73.135 31.88 73.135 29C73.135 26.12 74.095 23.6667 76.015 21.64C77.935 19.6133 80.295 18.6 83.095 18.6C84.615 18.6 86.0417 18.9467 87.375 19.64C88.735 20.3333 89.775 21.24 90.495 22.36V9H93.295V39H90.495V35.64C89.775 36.76 88.735 37.6667 87.375 38.36C86.0417 39.0533 84.615 39.4 83.095 39.4ZM78.055 34.56C79.4417 36.0533 81.215 36.8 83.375 36.8C85.535 36.8 87.295 36.0533 88.655 34.56C90.0417 33.04 90.735 31.1867 90.735 29C90.735 26.8133 90.0417 24.9733 88.655 23.48C87.295 21.96 85.535 21.2 83.375 21.2C81.215 21.2 79.4417 21.96 78.055 23.48C76.695 24.9733 76.015 26.8133 76.015 29C76.015 31.1867 76.695 33.04 78.055 34.56ZM105.607 13C104.993 13 104.473 12.8 104.047 12.4C103.647 11.9733 103.447 11.4667 103.447 10.88C103.447 10.2933 103.647 9.8 104.047 9.4C104.473 8.97333 104.993 8.76 105.607 8.76C106.193 8.76 106.687 8.97333 107.087 9.4C107.487 9.8 107.687 10.2933 107.687 10.88C107.687 11.4667 107.487 11.9733 107.087 12.4C106.687 12.8 106.193 13 105.607 13ZM104.167 39V19H106.967V39H104.167ZM117.854 39V19H120.654V23.12C121.081 21.7867 121.841 20.7333 122.934 19.96C124.027 19.1867 125.201 18.8 126.454 18.8C127.014 18.8 127.494 18.8533 127.894 18.96V21.88C127.414 21.6933 126.854 21.6 126.214 21.6C124.801 21.6 123.521 22.24 122.374 23.52C121.227 24.8 120.654 26.6133 120.654 28.96V39H117.854ZM143.728 39.4C140.848 39.4 138.474 38.4133 136.608 36.44C134.741 34.4667 133.808 31.9867 133.808 29C133.808 26.0133 134.714 23.5333 136.528 21.56C138.341 19.5867 140.781 18.6 143.848 18.6C146.914 18.6 149.301 19.72 151.008 21.96C152.714 24.1733 153.434 26.7867 153.168 29.8H136.688C136.688 31.8 137.394 33.4667 138.808 34.8C140.221 36.1333 141.861 36.8 143.728 36.8C146.608 36.8 148.688 35.5467 149.968 33.04H152.848C152.341 34.88 151.301 36.4 149.728 37.6C148.154 38.8 146.154 39.4 143.728 39.4ZM143.728 21.2C142.048 21.2 140.568 21.7067 139.288 22.72C138.008 23.7067 137.194 25.2533 136.848 27.36H150.288C149.968 25.3867 149.221 23.8667 148.048 22.8C146.874 21.7333 145.434 21.2 143.728 21.2ZM171.216 39.4C168.202 39.4 165.709 38.4 163.736 36.4C161.762 34.3733 160.776 31.9067 160.776 29C160.776 26.0933 161.762 23.64 163.736 21.64C165.709 19.6133 168.202 18.6 171.216 18.6C173.642 18.6 175.762 19.28 177.576 20.64C179.389 21.9733 180.602 23.7067 181.216 25.84H178.176C177.696 24.4533 176.829 23.3333 175.576 22.48C174.322 21.6267 172.869 21.2 171.216 21.2C168.976 21.2 167.149 21.96 165.736 23.48C164.349 24.9733 163.656 26.8133 163.656 29C163.656 31.1867 164.349 33.04 165.736 34.56C167.149 36.0533 168.976 36.8 171.216 36.8C172.869 36.8 174.322 36.3733 175.576 35.52C176.829 34.6667 177.696 33.5467 178.176 32.16H181.216C180.602 34.2933 179.389 36.04 177.576 37.4C175.762 38.7333 173.642 39.4 171.216 39.4ZM197.053 39.2C195.373 39.2 194 38.72 192.933 37.76C191.893 36.7733 191.373 35.3333 191.373 33.44V21.64H187.093V19H191.373V13.44H194.173V19H200.013V21.64H194.173V33.2C194.173 34.4267 194.44 35.3067 194.973 35.84C195.533 36.3467 196.373 36.6 197.493 36.6C198.506 36.6 199.346 36.4533 200.013 36.16V38.68C199.133 39.0267 198.146 39.2 197.053 39.2Z" fill="#3EA584"/>
<path d="M118.52 65.16C117.976 65.16 117.469 65.0427 117 64.808C116.541 64.5627 116.189 64.2693 115.944 63.928V65H114.184V53H115.944V58.072C116.189 57.7307 116.541 57.4427 117 57.208C117.469 56.9627 117.976 56.84 118.52 56.84C119.608 56.84 120.52 57.2453 121.256 58.056C122.003 58.8667 122.376 59.848 122.376 61C122.376 62.152 122.003 63.1333 121.256 63.944C120.52 64.7547 119.608 65.16 118.52 65.16ZM118.2 63.56C118.893 63.56 119.464 63.3147 119.912 62.824C120.36 62.3333 120.584 61.7253 120.584 61C120.584 60.2747 120.36 59.6667 119.912 59.176C119.464 58.6853 118.893 58.44 118.2 58.44C117.496 58.44 116.92 58.6853 116.472 59.176C116.024 59.6667 115.8 60.2747 115.8 61C115.8 61.7253 116.024 62.3333 116.472 62.824C116.92 63.3147 117.496 63.56 118.2 63.56ZM126.541 68.344H124.605L126.317 64.568L122.877 57H124.813L127.261 62.664L129.725 57H131.677L126.541 68.344Z" fill="#5D626C"/>
<path fill-rule="evenodd" clip-rule="evenodd" d="M145.335 66.7388L145.508 67.0497C145.551 67.1081 145.599 67.1613 145.652 67.2086C145.873 61.5168 150.002 56.9101 155.234 56.4017C154.537 55.6734 153.015 56.014 150.517 55.973C150.178 54.4341 150.783 51.5536 150.268 50.7433C149.779 49.9735 148.988 50.2029 147.854 50.2028C146.459 50.2028 145.279 49.9763 145.243 51.6011C145.215 52.8602 145.355 54.7932 145.209 55.9154C144.728 56.1237 142.173 55.9292 141.412 55.9839C139.967 56.0878 140.021 57.3766 140.023 58.8216C140.023 59.4847 139.912 60.3387 140.177 60.8958C140.941 62.5021 143.252 61.3697 145.197 61.7946C145.438 62.9975 145.016 65.73 145.335 66.7387L145.335 66.7388Z" fill="#5D626C"/>
<path fill-rule="evenodd" clip-rule="evenodd" d="M156.001 57.5551C155.702 56.9171 153.255 57.605 152.799 57.7765C150.356 58.6945 148.31 60.806 147.326 63.5993C147.023 64.4594 146.489 66.6674 146.698 67.2956C146.879 67.3709 148.034 67.451 148.288 67.3902C148.478 67.2567 148.402 65.872 148.895 64.5437C149.287 63.488 149.688 62.6954 150.501 61.7652C151.311 60.8404 152.093 60.2878 153.028 59.8652C153.748 59.5402 154.891 59.3148 155.497 59.3672C155.578 59.5962 155.507 60.1567 155.539 60.4239C155.262 60.5533 154.791 60.5285 154.453 60.5935C151.958 61.0762 149.969 63.2601 149.503 66.1072C149.236 67.7408 149.358 67.4555 150.246 67.5161C150.539 67.5361 150.832 67.5971 151.08 67.513C151.231 67.0892 151.194 66.4552 151.417 65.7943C151.618 65.1967 151.889 64.6456 152.339 64.0971C153.096 63.176 154.606 62.3323 155.416 62.5889C155.44 62.8984 155.426 63.4418 155.361 63.654C154.601 63.8722 153.91 63.8244 153.041 64.8784C152.44 65.6093 151.991 66.9783 152.146 67.6378C153.112 67.7651 152.954 67.7044 153.802 67.6639C154.037 66.5141 154.463 65.797 155.353 65.669C155.406 66.5021 155.452 67.0699 155.523 67.4601C155.724 68.5685 155.799 66.9938 155.747 65.1991C155.742 64.9944 155.76 64.7162 155.664 64.7432C154.579 65.0514 153.589 65.5014 153.395 67.1544C153.381 67.2721 153.11 67.214 152.536 67.1684C152.664 65.8051 153.456 64.658 154.668 64.2662C155.096 64.1276 155.39 64.2203 155.705 64.0901C155.834 63.7975 155.886 62.4077 155.742 62.1422C155.397 62.017 154.613 62.1478 154.125 62.309C152.888 62.7166 151.808 63.7768 151.234 65.124C150.784 66.1824 150.867 66.6968 150.726 67.0655C150.709 67.0683 150.671 67.0566 150.675 67.0722C150.678 67.0873 150.635 67.0773 150.623 67.0778L150.263 67.0694C150.075 67.0568 149.987 67.0632 149.81 67.0085C149.74 66.4842 150.051 65.3576 150.303 64.7147C151.119 62.6369 152.829 61.2517 154.788 60.9958C155.119 60.9526 155.533 60.9938 155.801 60.9031C155.959 60.6228 156.007 59.2517 155.868 58.9703C155.441 58.7506 153.991 59.0477 153.269 59.2936C151.289 59.9692 149.567 61.7958 148.683 63.9724C148.185 65.1975 148.204 65.8029 148.01 66.9316L147.077 66.9036C146.981 66.1385 147.429 64.3785 147.794 63.4701C149.178 60.0278 152.126 57.7803 155.303 57.763C155.599 57.7614 155.879 57.905 156.001 57.5551Z" fill="#DEFEF3"/>
<path d="M161.504 65V53.64H162.992V58.488H169.216V53.64H170.704V65H169.216V59.88H162.992V65H161.504ZM176.766 65.16C175.604 65.16 174.639 64.7653 173.871 63.976C173.113 63.1867 172.735 62.1947 172.735 61C172.735 59.7947 173.103 58.8027 173.839 58.024C174.585 57.2347 175.572 56.84 176.799 56.84C178.036 56.84 179.007 57.2773 179.711 58.152C180.415 59.0267 180.724 60.0987 180.639 61.368H174.127C174.148 62.0933 174.415 62.7013 174.927 63.192C175.439 63.672 176.057 63.912 176.783 63.912C177.871 63.912 178.644 63.464 179.103 62.568H180.51C180.308 63.3147 179.876 63.9333 179.215 64.424C178.553 64.9147 177.737 65.16 176.766 65.16ZM178.335 58.632C177.897 58.248 177.369 58.056 176.751 58.056C176.132 58.056 175.577 58.2427 175.087 58.616C174.607 58.9893 174.308 59.544 174.191 60.28H179.183C179.055 59.5547 178.772 59.0053 178.335 58.632ZM185.92 65.16C184.811 65.16 183.877 64.7547 183.12 63.944C182.373 63.1333 182 62.152 182 61C182 59.848 182.373 58.8667 183.12 58.056C183.877 57.2453 184.811 56.84 185.92 56.84C186.507 56.84 187.051 56.9733 187.552 57.24C188.064 57.496 188.459 57.8267 188.736 58.232V57H190.112V65H188.736V63.768C188.459 64.1733 188.064 64.5093 187.552 64.776C187.051 65.032 186.507 65.16 185.92 65.16ZM186.128 63.896C186.917 63.896 187.568 63.6187 188.08 63.064C188.592 62.5093 188.848 61.8213 188.848 61C188.848 60.1787 188.592 59.4907 188.08 58.936C187.568 58.3813 186.917 58.104 186.128 58.104C185.328 58.104 184.672 58.3813 184.16 58.936C183.648 59.4907 183.392 60.1787 183.392 61C183.392 61.8213 183.648 62.5093 184.16 63.064C184.672 63.6187 185.328 63.896 186.128 63.896ZM192.702 65V53H194.078V65H192.702ZM199.983 65.16C198.873 65.16 197.94 64.7547 197.183 63.944C196.436 63.1333 196.063 62.152 196.063 61C196.063 59.848 196.436 58.8667 197.183 58.056C197.94 57.2453 198.873 56.84 199.983 56.84C200.569 56.84 201.113 56.9733 201.615 57.24C202.127 57.496 202.521 57.8267 202.799 58.232V57H204.175V65H202.799V63.768C202.521 64.1733 202.127 64.5093 201.615 64.776C201.113 65.032 200.569 65.16 199.983 65.16ZM200.191 63.896C200.98 63.896 201.631 63.6187 202.143 63.064C202.655 62.5093 202.911 61.8213 202.911 61C202.911 60.1787 202.655 59.4907 202.143 58.936C201.631 58.3813 200.98 58.104 200.191 58.104C199.391 58.104 198.735 58.3813 198.223 58.936C197.711 59.4907 197.455 60.1787 197.455 61C197.455 61.8213 197.711 62.5093 198.223 63.064C198.735 63.6187 199.391 63.896 200.191 63.896Z" fill="#5D626C"/>
</svg>
